<svg height="2478" width="720" xmlns="http://www.w3.org/2000/svg">
<rect height="2478" fill="#555" width="720"></rect>
<text fill="#7f7" font-family="Courier New" font-size="12" xml:space="preserve">
<tspan x="10" y="26">79 megabytes installed</tspan>
<tspan x="10" y="42"></tspan>
<tspan x="10" y="58">node_modules</tspan>
<tspan x="10" y="74">└─┬ gulp-markdown-pdf@4.0.0 </tspan>
<tspan x="10" y="90">  ├─┬ gulp-util@3.0.8 </tspan>
<tspan x="10" y="106">  │ ├── array-differ@1.0.0 </tspan>
<tspan x="10" y="122">  │ ├── array-uniq@1.0.3 </tspan>
<tspan x="10" y="138">  │ ├── beeper@1.1.1 </tspan>
<tspan x="10" y="154">  │ ├─┬ chalk@1.1.3 </tspan>
<tspan x="10" y="170">  │ │ ├── ansi-styles@2.2.1 </tspan>
<tspan x="10" y="186">  │ │ ├── escape-string-regexp@1.0.5 </tspan>
<tspan x="10" y="202">  │ │ ├─┬ has-ansi@2.0.0 </tspan>
<tspan x="10" y="218">  │ │ │ └── ansi-regex@2.1.1 </tspan>
<tspan x="10" y="234">  │ │ ├── strip-ansi@3.0.1 </tspan>
<tspan x="10" y="250">  │ │ └── supports-color@2.0.0 </tspan>
<tspan x="10" y="266">  │ ├── dateformat@2.0.0 </tspan>
<tspan x="10" y="282">  │ ├─┬ fancy-log@1.3.0 </tspan>
<tspan x="10" y="298">  │ │ └── time-stamp@1.0.1 </tspan>
<tspan x="10" y="314">  │ ├─┬ gulplog@1.0.0 </tspan>
<tspan x="10" y="330">  │ │ └── glogg@1.0.0 </tspan>
<tspan x="10" y="346">  │ ├─┬ has-gulplog@0.1.0 </tspan>
<tspan x="10" y="362">  │ │ └── sparkles@1.0.0 </tspan>
<tspan x="10" y="378">  │ ├── lodash._reescape@3.0.0 </tspan>
<tspan x="10" y="394">  │ ├── lodash._reevaluate@3.0.0 </tspan>
<tspan x="10" y="410">  │ ├── lodash._reinterpolate@3.0.0 </tspan>
<tspan x="10" y="426">  │ ├─┬ lodash.template@3.6.2 </tspan>
<tspan x="10" y="442">  │ │ ├── lodash._basecopy@3.0.1 </tspan>
<tspan x="10" y="458">  │ │ ├── lodash._basetostring@3.0.1 </tspan>
<tspan x="10" y="474">  │ │ ├── lodash._basevalues@3.0.0 </tspan>
<tspan x="10" y="490">  │ │ ├── lodash._isiterateecall@3.0.9 </tspan>
<tspan x="10" y="506">  │ │ ├─┬ lodash.escape@3.2.0 </tspan>
<tspan x="10" y="522">  │ │ │ └── lodash._root@3.0.1 </tspan>
<tspan x="10" y="538">  │ │ ├─┬ lodash.keys@3.1.2 </tspan>
<tspan x="10" y="554">  │ │ │ ├── lodash._getnative@3.9.1 </tspan>
<tspan x="10" y="570">  │ │ │ ├── lodash.isarguments@3.1.0 </tspan>
<tspan x="10" y="586">  │ │ │ └── lodash.isarray@3.0.4 </tspan>
<tspan x="10" y="602">  │ │ ├── lodash.restparam@3.6.1 </tspan>
<tspan x="10" y="618">  │ │ └── lodash.templatesettings@3.1.1 </tspan>
<tspan x="10" y="634">  │ ├── minimist@1.2.0 </tspan>
<tspan x="10" y="650">  │ ├─┬ multipipe@0.1.2 </tspan>
<tspan x="10" y="666">  │ │ └─┬ duplexer2@0.0.2 </tspan>
<tspan x="10" y="682">  │ │   └─┬ readable-stream@1.1.14 </tspan>
<tspan x="10" y="698">  │ │     ├── isarray@0.0.1 </tspan>
<tspan x="10" y="714">  │ │     └── string_decoder@0.10.31 </tspan>
<tspan x="10" y="730">  │ ├── object-assign@3.0.0 </tspan>
<tspan x="10" y="746">  │ ├── replace-ext@0.0.1 </tspan>
<tspan x="10" y="762">  │ └─┬ vinyl@0.5.3 </tspan>
<tspan x="10" y="778">  │   ├── clone@1.0.2 </tspan>
<tspan x="10" y="794">  │   └── clone-stats@0.0.1 </tspan>
<tspan x="10" y="810">  ├─┬ markdown-pdf@7.0.0 </tspan>
<tspan x="10" y="826">  │ ├─┬ commander@2.9.0 </tspan>
<tspan x="10" y="842">  │ │ └── graceful-readlink@1.0.1 </tspan>
<tspan x="10" y="858">  │ ├── duplexer@0.1.1 </tspan>
<tspan x="10" y="874">  │ ├── extend@3.0.0 </tspan>
<tspan x="10" y="890">  │ ├── highlight.js@9.11.0 </tspan>
<tspan x="10" y="906">  │ ├─┬ phantomjs-prebuilt@2.1.14 </tspan>
<tspan x="10" y="922">  │ │ ├── es6-promise@4.0.5 </tspan>
<tspan x="10" y="938">  │ │ ├─┬ extract-zip@1.5.0 </tspan>
<tspan x="10" y="954">  │ │ │ ├── debug@0.7.4 </tspan>
<tspan x="10" y="970">  │ │ │ └─┬ yauzl@2.4.1 </tspan>
<tspan x="10" y="986">  │ │ │   └─┬ fd-slicer@1.0.1 </tspan>
<tspan x="10" y="1002">  │ │ │     └── pend@1.2.0 </tspan>
<tspan x="10" y="1018">  │ │ ├─┬ fs-extra@1.0.0 </tspan>
<tspan x="10" y="1034">  │ │ │ ├── graceful-fs@4.1.11 </tspan>
<tspan x="10" y="1050">  │ │ │ ├── jsonfile@2.4.0 </tspan>
<tspan x="10" y="1066">  │ │ │ └── klaw@1.3.1 </tspan>
<tspan x="10" y="1082">  │ │ ├─┬ hasha@2.2.0 </tspan>
<tspan x="10" y="1098">  │ │ │ ├── is-stream@1.1.0 </tspan>
<tspan x="10" y="1114">  │ │ │ └─┬ pinkie-promise@2.0.1 </tspan>
<tspan x="10" y="1130">  │ │ │   └── pinkie@2.0.4 </tspan>
<tspan x="10" y="1146">  │ │ ├── kew@0.7.0 </tspan>
<tspan x="10" y="1162">  │ │ ├── progress@1.1.8 </tspan>
<tspan x="10" y="1178">  │ │ ├─┬ request@2.79.0 </tspan>
<tspan x="10" y="1194">  │ │ │ ├── aws-sign2@0.6.0 </tspan>
<tspan x="10" y="1210">  │ │ │ ├── aws4@1.6.0 </tspan>
<tspan x="10" y="1226">  │ │ │ ├── caseless@0.11.0 </tspan>
<tspan x="10" y="1242">  │ │ │ ├─┬ combined-stream@1.0.5 </tspan>
<tspan x="10" y="1258">  │ │ │ │ └── delayed-stream@1.0.0 </tspan>
<tspan x="10" y="1274">  │ │ │ ├── forever-agent@0.6.1 </tspan>
<tspan x="10" y="1290">  │ │ │ ├─┬ form-data@2.1.4 </tspan>
<tspan x="10" y="1306">  │ │ │ │ └── asynckit@0.4.0 </tspan>
<tspan x="10" y="1322">  │ │ │ ├─┬ har-validator@2.0.6 </tspan>
<tspan x="10" y="1338">  │ │ │ │ └─┬ is-my-json-valid@2.16.0 </tspan>
<tspan x="10" y="1354">  │ │ │ │   ├── generate-function@2.0.0 </tspan>
<tspan x="10" y="1370">  │ │ │ │   ├─┬ generate-object-property@1.2.0 </tspan>
<tspan x="10" y="1386">  │ │ │ │   │ └── is-property@1.0.2 </tspan>
<tspan x="10" y="1402">  │ │ │ │   └── jsonpointer@4.0.1 </tspan>
<tspan x="10" y="1418">  │ │ │ ├─┬ hawk@3.1.3 </tspan>
<tspan x="10" y="1434">  │ │ │ │ ├── boom@2.10.1 </tspan>
<tspan x="10" y="1450">  │ │ │ │ ├── cryptiles@2.0.5 </tspan>
<tspan x="10" y="1466">  │ │ │ │ ├── hoek@2.16.3 </tspan>
<tspan x="10" y="1482">  │ │ │ │ └── sntp@1.0.9 </tspan>
<tspan x="10" y="1498">  │ │ │ ├─┬ http-signature@1.1.1 </tspan>
<tspan x="10" y="1514">  │ │ │ │ ├── assert-plus@0.2.0 </tspan>
<tspan x="10" y="1530">  │ │ │ │ ├─┬ jsprim@1.4.0 </tspan>
<tspan x="10" y="1546">  │ │ │ │ │ ├── assert-plus@1.0.0 </tspan>
<tspan x="10" y="1562">  │ │ │ │ │ ├── extsprintf@1.0.2 </tspan>
<tspan x="10" y="1578">  │ │ │ │ │ ├── json-schema@0.2.3 </tspan>
<tspan x="10" y="1594">  │ │ │ │ │ └── verror@1.3.6 </tspan>
<tspan x="10" y="1610">  │ │ │ │ └─┬ sshpk@1.13.0 </tspan>
<tspan x="10" y="1626">  │ │ │ │   ├── asn1@0.2.3 </tspan>
<tspan x="10" y="1642">  │ │ │ │   ├── assert-plus@1.0.0 </tspan>
<tspan x="10" y="1658">  │ │ │ │   ├── bcrypt-pbkdf@1.0.1 </tspan>
<tspan x="10" y="1674">  │ │ │ │   ├─┬ dashdash@1.14.1 </tspan>
<tspan x="10" y="1690">  │ │ │ │   │ └── assert-plus@1.0.0 </tspan>
<tspan x="10" y="1706">  │ │ │ │   ├── ecc-jsbn@0.1.1 </tspan>
<tspan x="10" y="1722">  │ │ │ │   ├─┬ getpass@0.1.6 </tspan>
<tspan x="10" y="1738">  │ │ │ │   │ └── assert-plus@1.0.0 </tspan>
<tspan x="10" y="1754">  │ │ │ │   ├── jodid25519@1.0.2 </tspan>
<tspan x="10" y="1770">  │ │ │ │   ├── jsbn@0.1.1 </tspan>
<tspan x="10" y="1786">  │ │ │ │   └── tweetnacl@0.14.5 </tspan>
<tspan x="10" y="1802">  │ │ │ ├── is-typedarray@1.0.0 </tspan>
<tspan x="10" y="1818">  │ │ │ ├── isstream@0.1.2 </tspan>
<tspan x="10" y="1834">  │ │ │ ├── json-stringify-safe@5.0.1 </tspan>
<tspan x="10" y="1850">  │ │ │ ├─┬ mime-types@2.1.15 </tspan>
<tspan x="10" y="1866">  │ │ │ │ └── mime-db@1.27.0 </tspan>
<tspan x="10" y="1882">  │ │ │ ├── oauth-sign@0.8.2 </tspan>
<tspan x="10" y="1898">  │ │ │ ├── qs@6.3.2 </tspan>
<tspan x="10" y="1914">  │ │ │ ├── stringstream@0.0.5 </tspan>
<tspan x="10" y="1930">  │ │ │ ├─┬ tough-cookie@2.3.2 </tspan>
<tspan x="10" y="1946">  │ │ │ │ └── punycode@1.4.1 </tspan>
<tspan x="10" y="1962">  │ │ │ ├── tunnel-agent@0.4.3 </tspan>
<tspan x="10" y="1978">  │ │ │ └── uuid@3.0.1 </tspan>
<tspan x="10" y="1994">  │ │ ├─┬ request-progress@2.0.1 </tspan>
<tspan x="10" y="2010">  │ │ │ └── throttleit@1.0.0 </tspan>
<tspan x="10" y="2026">  │ │ └─┬ which@1.2.14 </tspan>
<tspan x="10" y="2042">  │ │   └── isexe@2.0.0 </tspan>
<tspan x="10" y="2058">  │ ├─┬ remarkable@1.7.1 </tspan>
<tspan x="10" y="2074">  │ │ ├─┬ argparse@0.1.16 </tspan>
<tspan x="10" y="2090">  │ │ │ ├── underscore@1.7.0 </tspan>
<tspan x="10" y="2106">  │ │ │ └── underscore.string@2.4.0 </tspan>
<tspan x="10" y="2122">  │ │ └── autolinker@0.15.3 </tspan>
<tspan x="10" y="2138">  │ ├─┬ stream-from-to@1.4.3 </tspan>
<tspan x="10" y="2154">  │ │ ├── async@1.5.2 </tspan>
<tspan x="10" y="2170">  │ │ ├─┬ concat-stream@1.5.0 </tspan>
<tspan x="10" y="2186">  │ │ │ ├─┬ readable-stream@2.0.6 </tspan>
<tspan x="10" y="2202">  │ │ │ │ └── isarray@1.0.0 </tspan>
<tspan x="10" y="2218">  │ │ │ └── typedarray@0.0.6 </tspan>
<tspan x="10" y="2234">  │ │ ├─┬ mkdirp@0.5.0 </tspan>
<tspan x="10" y="2250">  │ │ │ └── minimist@0.0.8 </tspan>
<tspan x="10" y="2266">  │ │ └── series-stream@1.0.1 </tspan>
<tspan x="10" y="2282">  │ └─┬ tmp@0.0.28 </tspan>
<tspan x="10" y="2298">  │   └── os-tmpdir@1.0.2 </tspan>
<tspan x="10" y="2314">  └─┬ through2@2.0.3 </tspan>
<tspan x="10" y="2330">    ├─┬ readable-stream@2.2.9 </tspan>
<tspan x="10" y="2346">    │ ├── buffer-shims@1.0.0 </tspan>
<tspan x="10" y="2362">    │ ├── core-util-is@1.0.2 </tspan>
<tspan x="10" y="2378">    │ ├── inherits@2.0.3 </tspan>
<tspan x="10" y="2394">    │ ├── isarray@1.0.0 </tspan>
<tspan x="10" y="2410">    │ ├── process-nextick-args@1.0.7 </tspan>
<tspan x="10" y="2426">    │ ├── string_decoder@1.0.0 </tspan>
<tspan x="10" y="2442">    │ └── util-deprecate@1.0.2 </tspan>
<tspan x="10" y="2458">    └── xtend@4.0.1</tspan>
</text>
</svg>
